<?xml version="1.0" encoding="UTF-8"?>
<svg width="1192px" height="240px" viewBox="0 0 1192 240" version="1.1" xmlns="http://www.w3.org/2000/svg" xmlns:xlink="http://www.w3.org/1999/xlink">
    <title>default-monochrome-black</title>
    <g id="Page-1" stroke="none" stroke-width="1" fill="none" fill-rule="evenodd">
        <g id="noun_connection_584128" fill="#687DED" fill-rule="nonzero">
            <path d="M33.7528246,154.5028 C52.3939948,154.5028 67.505649,139.391146 67.505649,120.749976 C67.505649,102.108805 52.3939948,86.997151 33.7528246,86.997151 C15.1116543,86.997151 0,102.108805 0,120.749976 C0,139.391146 15.1116543,154.5028 33.7528246,154.5028 L33.7528246,154.5028 Z M152.994991,206.982842 C152.603642,225.284311 137.64535,240 119.250025,240 C100.608854,240 85.4972,224.888346 85.4972,206.247175 C85.4972,187.606005 100.608854,172.494351 119.250025,172.494351 C119.295655,172.494351 119.342566,172.493208 119.390744,172.490933 C119.592249,172.49321 119.794026,172.494351 119.99607,172.494351 C148.667865,172.494351 171.971275,149.509566 172.485668,120.960628 C172.491442,120.887534 172.494351,120.817302 172.494351,120.749976 C172.494351,120.704931 172.493171,120.658633 172.490822,120.611095 C172.493173,120.406366 172.494351,120.201356 172.494351,119.99607 C172.494351,91.0020703 148.99007,67.4977896 119.99607,67.4977896 C119.696154,67.4977896 119.396826,67.5003046 119.098105,67.5053143 C100.52682,67.4234772 85.4972,52.343329 85.4972,33.7528246 C85.4972,15.1116543 100.608854,0 119.250025,0 C137.840529,0 152.920677,15.0296202 153.002514,33.6009053 C152.997505,33.8996261 152.99499,34.1989546 152.99499,34.4988701 C152.99499,63.49287 176.499271,86.997151 205.49327,86.997151 C205.694364,86.997151 205.895195,86.9960203 206.095755,86.993765 C206.147428,86.9960182 206.197906,86.997151 206.247175,86.997151 C224.888346,86.997151 240,102.108805 240,120.749976 C240,139.342566 224.967007,154.424013 206.392843,154.502492 C206.093588,154.497464 205.793724,154.49494 205.49327,154.49494 C176.50273,154.49494 153.000599,177.993612 152.994991,206.982842 L152.994991,206.982842 L152.994991,206.982842 Z" id="Shape"></path>
        </g>
        <g id="noun_connection_584128" fill="#8ca0fe" fill-rule="nonzero">
            <path d="M33.7528246,154.5028 C52.3939948,154.5028 67.505649,139.391146 67.505649,120.749976 C67.505649,102.108805 52.3939948,86.997151 33.7528246,86.997151 C15.1116543,86.997151 0,102.108805 0,120.749976 C0,139.391146 15.1116543,154.5028 33.7528246,154.5028 L33.7528246,154.5028 Z M152.994991,206.982842 C152.603642,225.284311 137.64535,240 119.250025,240 C100.608854,240 85.4972,224.888346 85.4972,206.247175 C85.4972,187.606005 100.608854,172.494351 119.250025,172.494351 C119.295655,172.494351 119.342566,172.493208 119.390744,172.490933 C119.592249,172.49321 119.794026,172.494351 119.99607,172.494351 C148.667865,172.494351 171.971275,149.509566 172.485668,120.960628 C172.491442,120.887534 172.494351,120.817302 172.494351,120.749976 C172.494351,120.704931 172.493171,120.658633 172.490822,120.611095 C172.493173,120.406366 172.494351,120.201356 172.494351,119.99607 C172.494351,91.0020703 148.99007,67.4977896 119.99607,67.4977896 C119.696154,67.4977896 119.396826,67.5003046 119.098105,67.5053143 C100.52682,67.4234772 85.4972,52.343329 85.4972,33.7528246 C85.4972,15.1116543 100.608854,0 119.250025,0 C137.840529,0 152.920677,15.0296202 153.002514,33.6009053 C152.997505,33.8996261 152.99499,34.1989546 152.99499,34.4988701 C152.99499,63.49287 176.499271,86.997151 205.49327,86.997151 C205.694364,86.997151 205.895195,86.9960203 206.095755,86.993765 C206.147428,86.9960182 206.197906,86.997151 206.247175,86.997151 C224.888346,86.997151 240,102.108805 240,120.749976 C240,139.342566 224.967007,154.424013 206.392843,154.502492 C206.093588,154.497464 205.793724,154.49494 205.49327,154.49494 C176.50273,154.49494 153.000599,177.993612 152.994991,206.982842 L152.994991,206.982842 L152.994991,206.982842 Z" id="Shape"></path>
        </g>
        <g id="default-monochrome-black" transform="translate(309.000000, 41.000000)" fill="#130e32" fill-rule="nonzero">
            <path d="M55.4839655,46.2929936 L55.4839655,46.2929936 C65.8333062,46.2929936 75.2243746,48.7370337 83.6571708,53.6251137 L83.6571708,53.6251137 L83.6571708,53.6251137 C91.9941397,58.5131938 98.6062185,65.2223233 103.493407,73.7525023 L103.493407,73.7525023 L103.493407,73.7525023 C108.380596,82.2826812 110.82419,91.7713072 110.82419,102.21838 L110.82419,102.21838 L110.82419,147.073703 L110.82419,147.073703 C110.82419,150.044889 109.865918,152.488929 107.949373,154.405823 L107.949373,154.405823 L107.949373,154.405823 C106.032829,156.418562 103.589234,157.424932 100.61859,157.424932 L100.61859,157.424932 L100.61859,157.424932 C97.6479462,157.424932 95.2043518,156.418562 93.2878073,154.405823 L93.2878073,154.405823 L93.2878073,154.405823 C91.2754355,152.488929 90.2692496,150.044889 90.2692496,147.073703 L90.2692496,147.073703 L90.2692496,139.741583 L90.2692496,139.741583 C85.5737153,145.492266 79.8719952,149.949045 73.1640892,153.11192 L73.1640892,153.11192 L73.1640892,153.11192 C66.4561832,156.37064 59.2212274,158 51.4592219,158 L51.4592219,158 L51.4592219,158 C41.7806718,158 33.0603939,155.603882 25.2983884,150.811647 L25.2983884,150.811647 L25.2983884,150.811647 C17.4405556,145.923567 11.2596994,139.214437 6.75581963,130.684258 L6.75581963,130.684258 L6.75581963,130.684258 C2.25193988,122.154079 0,112.665453 0,102.21838 L0,102.21838 L0,102.21838 C0,91.7713072 2.39568072,82.2826812 7.18704216,73.7525023 L7.18704216,73.7525023 L7.18704216,73.7525023 C12.0742308,65.2223233 18.7821368,58.5131938 27.3107602,53.6251137 L27.3107602,53.6251137 L27.3107602,53.6251137 C35.7435564,48.7370337 45.1346248,46.2929936 55.4839655,46.2929936 L55.4839655,46.2929936 Z M55.4839655,139.88535 L55.4839655,139.88535 C62.1918715,139.88535 68.2769005,138.25599 73.7390526,134.99727 L73.7390526,134.99727 L73.7390526,134.99727 C79.2012046,131.642705 83.4655163,127.138004 86.5319876,121.483167 L86.5319876,121.483167 L86.5319876,121.483167 C89.598459,115.732484 91.1316946,109.310889 91.1316946,102.21838 L91.1316946,102.21838 L91.1316946,102.21838 C91.1316946,95.125872 89.598459,88.7042766 86.5319876,82.9535942 L86.5319876,82.9535942 L86.5319876,82.9535942 C83.4655163,77.2029117 79.2012046,72.6502881 73.7390526,69.2957234 L73.7390526,69.2957234 L73.7390526,69.2957234 C68.2769005,66.0370033 62.1918715,64.4076433 55.4839655,64.4076433 L55.4839655,64.4076433 L55.4839655,64.4076433 C48.7760595,64.4076433 42.6910304,66.0370033 37.2288784,69.2957234 L37.2288784,69.2957234 L37.2288784,69.2957234 C31.8625536,72.6502881 27.5982419,77.2029117 24.4359434,82.9535942 L24.4359434,82.9535942 L24.4359434,82.9535942 C21.2736448,88.7042766 19.6924955,95.125872 19.6924955,102.21838 L19.6924955,102.21838 L19.6924955,102.21838 C19.6924955,109.310889 21.2736448,115.732484 24.4359434,121.483167 L24.4359434,121.483167 L24.4359434,121.483167 C27.5982419,127.138004 31.8625536,131.642705 37.2288784,134.99727 L37.2288784,134.99727 L37.2288784,134.99727 C42.6910304,138.25599 48.7760595,139.88535 55.4839655,139.88535 L55.4839655,139.88535 Z M151.64659,0 L151.64659,0 C148.580118,0 146.136524,0.958447073 144.315807,2.87534122 L144.315807,2.87534122 L144.315807,2.87534122 C142.399262,4.69639066 141.44099,7.14043069 141.44099,10.2074613 L141.44099,10.2074613 L141.44099,102.074613 L141.44099,102.074613 C141.44099,112.521686 143.884584,122.010312 148.771773,130.540491 L148.771773,130.540491 L148.771773,130.540491 C153.658961,139.07067 160.318954,145.7798 168.75175,150.66788 L168.75175,150.66788 L168.75175,150.66788 C177.088719,155.55596 186.431874,158 196.781214,158 L196.781214,158 L196.781214,158 C207.130555,158 216.569537,155.55596 225.098161,150.66788 L225.098161,150.66788 L225.098161,150.66788 C233.626784,145.7798 240.286776,139.07067 245.078138,130.540491 L245.078138,130.540491 L245.078138,130.540491 C249.869499,122.010312 252.26518,112.521686 252.26518,102.074613 L252.26518,102.074613 L252.26518,102.074613 C252.26518,91.6275402 250.061154,82.1389142 245.653101,73.6087352 L245.653101,73.6087352 L245.653101,73.6087352 C241.149221,65.0785563 234.968365,58.3694268 227.110532,53.4813467 L227.110532,53.4813467 L227.110532,53.4813467 C219.2527,48.6891113 210.484508,46.2929936 200.805958,46.2929936 L200.805958,46.2929936 L200.805958,46.2929936 C193.043952,46.2929936 185.808997,47.9223537 179.101091,51.1810737 L179.101091,51.1810737 L179.101091,51.1810737 C172.393185,54.343949 166.691465,58.8007279 161.99593,64.5514104 L161.99593,64.5514104 L161.99593,10.2074613 L161.99593,10.2074613 C161.99593,7.14043069 161.037658,4.69639066 159.121113,2.87534122 L159.121113,2.87534122 L159.121113,2.87534122 C157.108742,0.958447073 154.617234,0 151.64659,0 L151.64659,0 Z M196.781214,139.88535 L196.781214,139.88535 C190.073308,139.88535 183.988279,138.25599 178.526127,134.99727 L178.526127,134.99727 L178.526127,134.99727 C173.159802,131.642705 168.895491,127.090082 165.733192,121.339399 L165.733192,121.339399 L165.733192,121.339399 C162.666721,115.588717 161.133485,109.167122 161.133485,102.074613 L161.133485,102.074613 L161.133485,102.074613 C161.133485,94.9821049 162.666721,88.5605096 165.733192,82.8098271 L165.733192,82.8098271 L165.733192,82.8098271 C168.895491,77.1549894 173.159802,72.6502881 178.526127,69.2957234 L178.526127,69.2957234 L178.526127,69.2957234 C183.988279,66.0370033 190.073308,64.4076433 196.781214,64.4076433 L196.781214,64.4076433 L196.781214,64.4076433 C203.48912,64.4076433 209.574149,66.0370033 215.036301,69.2957234 L215.036301,69.2957234 L215.036301,69.2957234 C220.402626,72.6502881 224.666938,77.1549894 227.829237,82.8098271 L227.829237,82.8098271 L227.829237,82.8098271 C230.991535,88.5605096 232.572684,94.9821049 232.572684,102.074613 L232.572684,102.074613 L232.572684,102.074613 C232.572684,109.167122 230.991535,115.588717 227.829237,121.339399 L227.829237,121.339399 L227.829237,121.339399 C224.666938,127.090082 220.402626,131.642705 215.036301,134.99727 L215.036301,134.99727 L215.036301,134.99727 C209.574149,138.25599 203.48912,139.88535 196.781214,139.88535 L196.781214,139.88535 Z M321.548266,46.2929936 L321.548266,46.2929936 C330.268544,46.2929936 338.078463,47.6827419 344.978024,50.4622384 L344.978024,50.4622384 L344.978024,50.4622384 C351.877584,53.3375796 357.339736,57.2672126 361.36448,62.2511374 L361.36448,62.2511374 L361.36448,62.2511374 C363.08937,64.359721 363.951815,66.4683045 363.951815,68.5768881 L363.951815,68.5768881 L363.951815,68.5768881 C363.951815,70.8771611 362.849802,72.9857446 360.645776,74.9026388 L360.645776,74.9026388 L360.645776,74.9026388 C359.11254,75.9569305 357.195995,76.4840764 354.896142,76.4840764 L354.896142,76.4840764 L354.896142,76.4840764 C351.446362,76.4840764 348.331977,75.1901729 345.552987,72.6023658 L345.552987,72.6023658 L345.552987,72.6023658 C342.199034,69.5353352 338.605513,67.3788292 334.772424,66.132848 L334.772424,66.132848 L334.772424,66.132848 C331.035162,64.8868668 326.483369,64.2638763 321.117044,64.2638763 L321.117044,64.2638763 L321.117044,64.2638763 C314.984101,64.2638763 309.953172,65.2702457 306.024255,67.2829845 L306.024255,67.2829845 L306.024255,67.2829845 C301.999512,69.3915681 299.98714,72.3148317 299.98714,76.0527753 L299.98714,76.0527753 L299.98714,76.0527753 C299.98714,78.7364271 300.65793,80.9887777 301.999512,82.8098271 L301.999512,82.8098271 L301.999512,82.8098271 C303.341093,84.6308766 305.880514,86.3081589 309.617776,87.8416742 L309.617776,87.8416742 L309.617776,87.8416742 C313.450865,89.3751896 318.913018,90.9087049 326.004232,92.4422202 L326.004232,92.4422202 L326.004232,92.4422202 C340.569971,95.3175614 350.919312,99.3909615 357.052255,104.66242 L357.052255,104.66242 L357.052255,104.66242 C363.185197,109.933879 366.251669,116.690931 366.251669,124.933576 L366.251669,124.933576 L366.251669,124.933576 C366.251669,131.163482 364.574692,136.770397 361.220739,141.754322 L361.220739,141.754322 L361.220739,141.754322 C357.866786,146.834092 352.931684,150.811647 346.415432,153.686988 L346.415432,153.686988 L346.415432,153.686988 C339.899181,156.562329 332.089261,158 322.985675,158 L322.985675,158 L322.985675,158 C313.882088,158 305.305551,156.610252 297.256064,153.830755 L297.256064,153.830755 L297.256064,153.830755 C289.206577,150.955414 282.881979,147.265393 278.282273,142.760692 L278.282273,142.760692 L278.282273,142.760692 C276.557382,140.939642 275.694937,138.831059 275.694937,136.434941 L275.694937,136.434941 L275.694937,136.434941 C275.694937,133.272066 277.036519,130.684258 279.719681,128.67152 L279.719681,128.67152 L279.719681,128.67152 C282.211189,126.754625 284.558956,125.796178 286.762982,125.796178 L286.762982,125.796178 L286.762982,125.796178 C289.446145,125.796178 291.985566,126.994237 294.381247,129.390355 L294.381247,129.390355 L294.381247,129.390355 C296.968582,132.265696 300.801671,134.709736 305.880514,136.722475 L305.880514,136.722475 L305.880514,136.722475 C310.959358,138.831059 316.373596,139.88535 322.12323,139.88535 L322.12323,139.88535 L322.12323,139.88535 C329.789408,139.88535 335.730696,138.591447 339.947094,136.00364 L339.947094,136.00364 L339.947094,136.00364 C344.163492,133.511677 346.271691,130.10919 346.271691,125.796178 L346.271691,125.796178 L346.271691,125.796178 C346.271691,121.674856 344.211406,118.224446 340.090835,115.44495 L340.090835,115.44495 L340.090835,115.44495 C335.874437,112.665453 328.831136,110.36518 318.960931,108.544131 L318.960931,108.544131 L318.960931,108.544131 C293.183407,103.560206 280.294644,92.9214437 280.294644,76.6278435 L280.294644,76.6278435 L280.294644,76.6278435 C280.294644,70.1104034 282.259103,64.5514104 286.188019,59.9508644 L286.188019,59.9508644 L286.188019,59.9508644 C290.021108,55.4461632 295.099951,52.0436761 301.424548,49.7434031 L301.424548,49.7434031 L301.424548,49.7434031 C307.749145,47.4431301 314.457051,46.2929936 321.548266,46.2929936 L321.548266,46.2929936 Z M439.128276,137.010009 L439.128276,137.010009 C441.523957,137.010009 443.536329,137.968456 445.165392,139.88535 L445.165392,139.88535 L445.165392,139.88535 C446.890282,141.802244 447.752727,144.198362 447.752727,147.073703 L447.752727,147.073703 L447.752727,147.073703 C447.752727,150.044889 446.650714,152.488929 444.446687,154.405823 L444.446687,154.405823 L444.446687,154.405823 C442.242661,156.226873 439.367844,157.137398 435.822237,157.137398 L435.822237,157.137398 L432.228716,157.137398 L432.228716,157.137398 C425.616637,157.137398 419.627435,155.460115 414.26111,152.105551 L414.26111,152.105551 L414.26111,152.105551 C408.798958,148.655141 404.534646,143.95875 401.468175,138.016379 L401.468175,138.016379 L401.468175,138.016379 C398.401704,132.169851 396.868468,125.556567 396.868468,118.176524 L396.868468,118.176524 L396.868468,68.433121 L387.525313,68.433121 L387.525313,68.433121 C384.746324,68.433121 382.494384,67.618441 380.769494,65.989081 L380.769494,65.989081 L380.769494,65.989081 C378.948776,64.359721 378.038418,62.3469821 378.038418,59.9508644 L378.038418,59.9508644 L378.038418,59.9508644 C378.038418,57.2672126 378.948776,55.1107067 380.769494,53.4813467 L380.769494,53.4813467 L380.769494,53.4813467 C382.494384,51.9478314 384.746324,51.1810737 387.525313,51.1810737 L387.525313,51.1810737 L396.868468,51.1810737 L396.868468,22.1401274 L396.868468,22.1401274 C396.868468,19.1689415 397.778827,16.7728238 399.599544,14.9517743 L399.599544,14.9517743 L399.599544,14.9517743 C401.516089,13.0348802 403.959683,12.0764331 406.930327,12.0764331 L406.930327,12.0764331 L406.930327,12.0764331 C409.805144,12.0764331 412.200825,13.0348802 414.117369,14.9517743 L414.117369,14.9517743 L414.117369,14.9517743 C416.033914,16.7728238 416.992186,19.1689415 416.992186,22.1401274 L416.992186,22.1401274 L416.992186,51.1810737 L434.097347,51.1810737 L434.097347,51.1810737 C436.876336,51.1810737 439.128276,51.9478314 440.853166,53.4813467 L440.853166,53.4813467 L440.853166,53.4813467 C442.578056,55.1107067 443.440501,57.2672126 443.440501,59.9508644 L443.440501,59.9508644 L443.440501,59.9508644 C443.440501,62.3469821 442.578056,64.359721 440.853166,65.989081 L440.853166,65.989081 L440.853166,65.989081 C439.128276,67.618441 436.876336,68.433121 434.097347,68.433121 L434.097347,68.433121 L416.992186,68.433121 L416.992186,118.176524 L416.992186,118.176524 C416.992186,123.543828 418.429595,128.048529 421.304412,131.690628 L421.304412,131.690628 L421.304412,131.690628 C424.275056,135.236882 427.91649,137.010009 432.228716,137.010009 L432.228716,137.010009 L439.128276,137.010009 Z M526.81019,45.8616924 L526.81019,45.8616924 C533.901405,45.8616924 539.459385,46.9639066 543.484128,49.1683348 L543.484128,49.1683348 L543.484128,49.1683348 C547.508872,51.2769184 549.521244,53.9605702 549.521244,57.2192903 L549.521244,57.2192903 L549.521244,57.2192903 C549.521244,58.0818926 549.47333,58.7528056 549.377503,59.2320291 L549.377503,59.2320291 L549.377503,59.2320291 C548.131749,63.4491962 545.448586,65.5577798 541.328016,65.5577798 L541.328016,65.5577798 L541.328016,65.5577798 C540.657225,65.5577798 539.651039,65.4619351 538.309458,65.2702457 L538.309458,65.2702457 L538.309458,65.2702457 C532.943133,64.3117986 528.582994,63.8325751 525.229041,63.8325751 L525.229041,63.8325751 L525.229041,63.8325751 C515.550491,63.8325751 507.740572,66.0370033 501.799284,70.4458599 L501.799284,70.4458599 L501.799284,70.4458599 C495.953823,74.8547164 493.031092,80.8450106 493.031092,88.4167425 L493.031092,88.4167425 L493.031092,147.073703 L493.031092,147.073703 C493.031092,150.332423 492.168647,152.824386 490.443757,154.549591 L490.443757,154.549591 L490.443757,154.549591 C488.814694,156.274795 486.323186,157.137398 482.969233,157.137398 L482.969233,157.137398 L482.969233,157.137398 C479.711107,157.137398 477.2196,156.322718 475.494709,154.693358 L475.494709,154.693358 L475.494709,154.693358 C473.769819,152.968153 472.907374,150.428268 472.907374,147.073703 L472.907374,147.073703 L472.907374,57.2192903 L472.907374,57.2192903 C472.907374,53.9605702 473.769819,51.4686078 475.494709,49.7434031 L475.494709,49.7434031 L475.494709,49.7434031 C477.2196,48.0181984 479.711107,47.155596 482.969233,47.155596 L482.969233,47.155596 L482.969233,47.155596 C489.677139,47.155596 493.031092,50.5101608 493.031092,57.2192903 L493.031092,57.2192903 L493.031092,60.9572338 L493.031092,60.9572338 C497.055836,56.2608432 501.990938,52.570822 507.836399,49.8871702 L507.836399,49.8871702 L507.836399,49.8871702 C513.777687,47.2035184 520.102284,45.8616924 526.81019,45.8616924 L526.81019,45.8616924 Z M620.52922,46.2929936 L620.52922,46.2929936 C630.878561,46.2929936 640.269629,48.7370337 648.702426,53.6251137 L648.702426,53.6251137 L648.702426,53.6251137 C657.039394,58.5131938 663.651473,65.2223233 668.538662,73.7525023 L668.538662,73.7525023 L668.538662,73.7525023 C673.425851,82.2826812 675.869445,91.7713072 675.869445,102.21838 L675.869445,102.21838 L675.869445,147.073703 L675.869445,147.073703 C675.869445,150.044889 674.911173,152.488929 672.994628,154.405823 L672.994628,154.405823 L672.994628,154.405823 C671.078083,156.418562 668.634489,157.424932 665.663845,157.424932 L665.663845,157.424932 L665.663845,157.424932 C662.693201,157.424932 660.249607,156.418562 658.333062,154.405823 L658.333062,154.405823 L658.333062,154.405823 C656.416517,152.488929 655.458245,150.044889 655.458245,147.073703 L655.458245,147.073703 L655.458245,139.741583 L655.458245,139.741583 C650.762711,145.492266 645.060991,149.949045 638.353085,153.11192 L638.353085,153.11192 L638.353085,153.11192 C631.645179,156.37064 624.362309,158 616.504477,158 L616.504477,158 L616.504477,158 C606.921754,158 598.201476,155.603882 590.343643,150.811647 L590.343643,150.811647 L590.343643,150.811647 C582.48581,145.923567 576.304954,139.214437 571.801074,130.684258 L571.801074,130.684258 L571.801074,130.684258 C567.297195,122.154079 565.045255,112.665453 565.045255,102.21838 L565.045255,102.21838 L565.045255,102.21838 C565.045255,91.7713072 567.440935,82.2826812 572.232297,73.7525023 L572.232297,73.7525023 L572.232297,73.7525023 C577.119486,65.2223233 583.827392,58.5131938 592.356015,53.6251137 L592.356015,53.6251137 L592.356015,53.6251137 C600.884638,48.7370337 610.275707,46.2929936 620.52922,46.2929936 L620.52922,46.2929936 Z M620.52922,139.88535 L620.52922,139.88535 C627.237126,139.88535 633.322155,138.25599 638.784307,134.99727 L638.784307,134.99727 L638.784307,134.99727 C644.246459,131.642705 648.510771,127.138004 651.577242,121.483167 L651.577242,121.483167 L651.577242,121.483167 C654.643714,115.732484 656.176949,109.310889 656.176949,102.21838 L656.176949,102.21838 L656.176949,102.21838 C656.176949,95.125872 654.643714,88.7042766 651.577242,82.9535942 L651.577242,82.9535942 L651.577242,82.9535942 C648.510771,77.2029117 644.246459,72.6502881 638.784307,69.2957234 L638.784307,69.2957234 L638.784307,69.2957234 C633.322155,66.0370033 627.237126,64.4076433 620.52922,64.4076433 L620.52922,64.4076433 L620.52922,64.4076433 C613.821314,64.4076433 607.784199,66.0370033 602.417874,69.2957234 L602.417874,69.2957234 L602.417874,69.2957234 C596.955722,72.6502881 592.643497,77.2029117 589.481198,82.9535942 L589.481198,82.9535942 L589.481198,82.9535942 C586.3189,88.7042766 584.73775,95.125872 584.73775,102.21838 L584.73775,102.21838 L584.73775,102.21838 C584.73775,109.310889 586.3189,115.732484 589.481198,121.483167 L589.481198,121.483167 L589.481198,121.483167 C592.643497,127.138004 596.955722,131.642705 602.417874,134.99727 L602.417874,134.99727 L602.417874,134.99727 C607.784199,138.25599 613.821314,139.88535 620.52922,139.88535 L620.52922,139.88535 Z M755.358131,46.2929936 L755.358131,46.2929936 C771.265451,46.2929936 784.441695,52.3312102 794.886863,64.4076433 L794.886863,64.4076433 L794.886863,64.4076433 C796.228444,65.8453139 796.899235,67.5705187 796.899235,69.5832575 L796.899235,69.5832575 L796.899235,69.5832575 C796.899235,72.5544434 795.413913,75.0464058 792.443269,77.0591447 L792.443269,77.0591447 L792.443269,77.0591447 C791.101688,78.0175918 789.568452,78.4968153 787.843562,78.4968153 L787.843562,78.4968153 L787.843562,78.4968153 C784.77709,78.4968153 782.141842,77.2987564 779.937815,74.9026388 L779.937815,74.9026388 L779.937815,74.9026388 C776.583862,71.2605399 772.942428,68.5768881 769.013511,66.8516833 L769.013511,66.8516833 L769.013511,66.8516833 C765.084595,65.2223233 760.532802,64.4076433 755.358131,64.4076433 L755.358131,64.4076433 L755.358131,64.4076433 C745.104618,64.4076433 736.719735,67.8580528 730.203484,74.7588717 L730.203484,74.7588717 L730.203484,74.7588717 C723.783059,81.6596906 720.572847,90.8128602 720.572847,102.21838 L720.572847,102.21838 L720.572847,102.21838 C720.572847,109.502578 722.106083,115.972096 725.172554,121.626934 L725.172554,121.626934 L725.172554,121.626934 C728.143198,127.377616 732.359596,131.834395 737.821748,134.99727 L737.821748,134.99727 L737.821748,134.99727 C743.2839,138.25599 749.464757,139.88535 756.364317,139.88535 L756.364317,139.88535 L756.364317,139.88535 C765.563731,139.88535 772.942428,137.537155 778.500407,132.840764 L778.500407,132.840764 L778.500407,132.840764 C781.087742,130.92387 783.57925,129.965423 785.974931,129.965423 L785.974931,129.965423 L785.974931,129.965423 C787.891475,129.965423 789.664279,130.588414 791.293342,131.834395 L791.293342,131.834395 L791.293342,131.834395 C793.78485,133.942978 795.030604,136.339096 795.030604,139.022748 L795.030604,139.022748 L795.030604,139.022748 C795.030604,141.035487 794.216072,142.856536 792.58701,144.485896 L792.58701,144.485896 L792.58701,144.485896 C783.004287,153.495299 770.930056,158 756.364317,158 L756.364317,158 L756.364317,158 C745.823322,158 736.336426,155.603882 727.90363,150.811647 L727.90363,150.811647 L727.90363,150.811647 C719.375007,145.923567 712.762928,139.214437 708.067394,130.684258 L708.067394,130.684258 L708.067394,130.684258 C703.276032,122.154079 700.880352,112.665453 700.880352,102.21838 L700.880352,102.21838 L700.880352,102.21838 C700.880352,91.4837731 703.180205,81.85138 707.779912,73.3212011 L707.779912,73.3212011 L707.779912,73.3212011 C712.475446,64.7910221 718.943784,58.1777373 727.184926,53.4813467 L727.184926,53.4813467 L727.184926,53.4813467 C735.521895,48.6891113 744.912963,46.2929936 755.358131,46.2929936 L755.358131,46.2929936 Z M874.375549,137.010009 L874.375549,137.010009 C876.77123,137.010009 878.831516,137.968456 880.556406,139.88535 L880.556406,139.88535 L880.556406,139.88535 C882.185469,141.802244 883,144.198362 883,147.073703 L883,147.073703 L883,147.073703 C883,150.044889 881.897987,152.488929 879.693961,154.405823 L879.693961,154.405823 L879.693961,154.405823 C877.489934,156.226873 874.615117,157.137398 871.06951,157.137398 L871.06951,157.137398 L867.475989,157.137398 L867.475989,157.137398 C860.959737,157.137398 854.970536,155.460115 849.508384,152.105551 L849.508384,152.105551 L849.508384,152.105551 C844.046231,148.655141 839.78192,143.95875 836.715448,138.016379 L836.715448,138.016379 L836.715448,138.016379 C833.648977,132.169851 832.115741,125.556567 832.115741,118.176524 L832.115741,118.176524 L832.115741,68.433121 L822.772587,68.433121 L822.772587,68.433121 C819.993597,68.433121 817.741657,67.618441 816.016767,65.989081 L816.016767,65.989081 L816.016767,65.989081 C814.291877,64.359721 813.429432,62.3469821 813.429432,59.9508644 L813.429432,59.9508644 L813.429432,59.9508644 C813.429432,57.2672126 814.291877,55.1107067 816.016767,53.4813467 L816.016767,53.4813467 L816.016767,53.4813467 C817.741657,51.9478314 819.993597,51.1810737 822.772587,51.1810737 L822.772587,51.1810737 L832.115741,51.1810737 L832.115741,22.1401274 L832.115741,22.1401274 C832.115741,19.1689415 833.0261,16.7728238 834.846818,14.9517743 L834.846818,14.9517743 L834.846818,14.9517743 C836.763362,13.0348802 839.206956,12.0764331 842.177601,12.0764331 L842.177601,12.0764331 L842.177601,12.0764331 C845.148245,12.0764331 847.543925,13.0348802 849.364643,14.9517743 L849.364643,14.9517743 L849.364643,14.9517743 C851.281187,16.7728238 852.23946,19.1689415 852.23946,22.1401274 L852.23946,22.1401274 L852.23946,51.1810737 L869.34462,51.1810737 L869.34462,51.1810737 C872.12361,51.1810737 874.375549,51.9478314 876.10044,53.4813467 L876.10044,53.4813467 L876.10044,53.4813467 C877.921157,55.1107067 878.831516,57.2672126 878.831516,59.9508644 L878.831516,59.9508644 L878.831516,59.9508644 C878.831516,62.3469821 877.921157,64.359721 876.10044,65.989081 L876.10044,65.989081 L876.10044,65.989081 C874.375549,67.618441 872.12361,68.433121 869.34462,68.433121 L869.34462,68.433121 L852.23946,68.433121 L852.23946,118.176524 L852.23946,118.176524 C852.23946,123.543828 853.724782,128.048529 856.695426,131.690628 L856.695426,131.690628 L856.695426,131.690628 C859.570243,135.236882 863.163764,137.010009 867.475989,137.010009 L867.475989,137.010009 L874.375549,137.010009 Z" id="Shape"></path>
        </g>
    </g>
</svg>